<mxfile host="Electron" modified="2024-06-13T23:29:35.496Z" agent="Mozilla/5.0 (Windows NT 10.0; Win64; x64) AppleWebKit/537.36 (KHTML, like Gecko) draw.io/23.1.5 Chrome/120.0.6099.109 Electron/28.1.0 Safari/537.36" etag="sf1N7PJn4PfKJHOeZKFF" version="23.1.5" type="device">
  <diagram name="PÃ¡gina-1" id="rhB6WQXRs9lu33agCNtb">
    <mxGraphModel dx="3728" dy="734" grid="1" gridSize="10" guides="1" tooltips="1" connect="1" arrows="1" fold="1" page="1" pageScale="1" pageWidth="827" pageHeight="1169" math="0" shadow="0">
      <root>
        <mxCell id="0" />
        <mxCell id="1" parent="0" />
        <mxCell id="UYLyOY48CC0UU0o-2ukI-1" value="" style="swimlane;startSize=0;" parent="1" vertex="1">
          <mxGeometry x="-1240" y="390" width="640" height="550" as="geometry" />
        </mxCell>
        <mxCell id="UYLyOY48CC0UU0o-2ukI-3" value="&lt;b&gt;&lt;br&gt;&lt;span style=&quot;font-size: 24px;&quot;&gt;Back End&lt;/span&gt;&lt;/b&gt;" style="text;html=1;spacing=5;spacingTop=-20;whiteSpace=wrap;overflow=hidden;rounded=0;" parent="UYLyOY48CC0UU0o-2ukI-1" vertex="1">
          <mxGeometry width="290" height="40" as="geometry" />
        </mxCell>
        <mxCell id="UYLyOY48CC0UU0o-2ukI-5" value="" style="swimlane;startSize=0;" parent="UYLyOY48CC0UU0o-2ukI-1" vertex="1">
          <mxGeometry x="370" y="50" width="200" height="140" as="geometry" />
        </mxCell>
        <mxCell id="UYLyOY48CC0UU0o-2ukI-6" value="&lt;font style=&quot;font-size: 14px;&quot;&gt;&lt;b&gt;RabbitMQ&lt;/b&gt;&lt;/font&gt;" style="text;html=1;align=center;verticalAlign=middle;resizable=0;points=[];autosize=1;strokeColor=none;fillColor=none;" parent="UYLyOY48CC0UU0o-2ukI-5" vertex="1">
          <mxGeometry x="-9" width="90" height="30" as="geometry" />
        </mxCell>
        <mxCell id="UYLyOY48CC0UU0o-2ukI-22" value="" style="verticalLabelPosition=bottom;html=1;verticalAlign=top;align=center;strokeColor=none;fillColor=#00BEF2;shape=mxgraph.azure.storage_queue;" parent="UYLyOY48CC0UU0o-2ukI-5" vertex="1">
          <mxGeometry x="76" y="47.5" width="50" height="45" as="geometry" />
        </mxCell>
        <mxCell id="UYLyOY48CC0UU0o-2ukI-43" value="Orders queue" style="text;html=1;align=center;verticalAlign=middle;whiteSpace=wrap;rounded=0;" parent="UYLyOY48CC0UU0o-2ukI-5" vertex="1">
          <mxGeometry x="120" y="55" width="60" height="30" as="geometry" />
        </mxCell>
        <mxCell id="UYLyOY48CC0UU0o-2ukI-15" value="Upload &lt;b&gt;.CSV&lt;/b&gt;&amp;nbsp;file to be converted" style="rounded=1;whiteSpace=wrap;html=1;" parent="UYLyOY48CC0UU0o-2ukI-1" vertex="1">
          <mxGeometry x="46" y="90" width="120" height="60" as="geometry" />
        </mxCell>
        <mxCell id="UYLyOY48CC0UU0o-2ukI-19" value="Send the download file link of the converted &lt;b&gt;.JSON&amp;nbsp;&lt;/b&gt;" style="rounded=1;whiteSpace=wrap;html=1;" parent="UYLyOY48CC0UU0o-2ukI-1" vertex="1">
          <mxGeometry x="46" y="430" width="120" height="60" as="geometry" />
        </mxCell>
        <mxCell id="UYLyOY48CC0UU0o-2ukI-27" style="edgeStyle=orthogonalEdgeStyle;rounded=0;orthogonalLoop=1;jettySize=auto;html=1;entryX=-0.038;entryY=0.522;entryDx=0;entryDy=0;entryPerimeter=0;exitX=1;exitY=0.5;exitDx=0;exitDy=0;flowAnimation=1;fillColor=#fa6800;strokeColor=#C73500;" parent="UYLyOY48CC0UU0o-2ukI-1" source="UYLyOY48CC0UU0o-2ukI-55" target="UYLyOY48CC0UU0o-2ukI-22" edge="1">
          <mxGeometry relative="1" as="geometry">
            <mxPoint x="335" y="120.08333333333348" as="sourcePoint" />
          </mxGeometry>
        </mxCell>
        <mxCell id="UYLyOY48CC0UU0o-2ukI-28" value="Order&lt;br&gt;to&lt;br&gt;convert" style="text;html=1;align=center;verticalAlign=middle;whiteSpace=wrap;rounded=0;" parent="UYLyOY48CC0UU0o-2ukI-1" vertex="1">
          <mxGeometry x="285" y="140" width="60" height="30" as="geometry" />
        </mxCell>
        <mxCell id="UYLyOY48CC0UU0o-2ukI-34" value="Queue consumer" style="rounded=0;whiteSpace=wrap;html=1;" parent="UYLyOY48CC0UU0o-2ukI-1" vertex="1">
          <mxGeometry x="425" y="261.5" width="90" height="40" as="geometry" />
        </mxCell>
        <mxCell id="UYLyOY48CC0UU0o-2ukI-61" style="edgeStyle=orthogonalEdgeStyle;rounded=0;orthogonalLoop=1;jettySize=auto;html=1;entryX=0.5;entryY=1;entryDx=0;entryDy=0;flowAnimation=1;fillColor=#d80073;strokeColor=#A50040;" parent="UYLyOY48CC0UU0o-2ukI-1" source="UYLyOY48CC0UU0o-2ukI-35" target="UYLyOY48CC0UU0o-2ukI-19" edge="1">
          <mxGeometry relative="1" as="geometry">
            <Array as="points">
              <mxPoint x="470" y="520" />
              <mxPoint x="106" y="520" />
            </Array>
          </mxGeometry>
        </mxCell>
        <mxCell id="UYLyOY48CC0UU0o-2ukI-35" value="Convert CSV to JSON using&lt;br&gt;streams" style="rounded=1;whiteSpace=wrap;html=1;" parent="UYLyOY48CC0UU0o-2ukI-1" vertex="1">
          <mxGeometry x="410" y="430" width="120" height="60" as="geometry" />
        </mxCell>
        <mxCell id="UYLyOY48CC0UU0o-2ukI-36" value="Queue consumer" style="rounded=0;whiteSpace=wrap;html=1;" parent="UYLyOY48CC0UU0o-2ukI-1" vertex="1">
          <mxGeometry x="520" y="261.5" width="90" height="40" as="geometry" />
        </mxCell>
        <mxCell id="UYLyOY48CC0UU0o-2ukI-37" value="Queue consumer" style="rounded=0;whiteSpace=wrap;html=1;" parent="UYLyOY48CC0UU0o-2ukI-1" vertex="1">
          <mxGeometry x="330" y="261.5" width="90" height="40" as="geometry" />
        </mxCell>
        <mxCell id="UYLyOY48CC0UU0o-2ukI-39" value="" style="endArrow=classic;html=1;rounded=0;exitX=0.5;exitY=1;exitDx=0;exitDy=0;exitPerimeter=0;entryX=0.5;entryY=0;entryDx=0;entryDy=0;flowAnimation=1;fillColor=#1ba1e2;strokeColor=#006EAF;" parent="UYLyOY48CC0UU0o-2ukI-1" source="UYLyOY48CC0UU0o-2ukI-22" target="UYLyOY48CC0UU0o-2ukI-37" edge="1">
          <mxGeometry width="50" height="50" relative="1" as="geometry">
            <mxPoint x="260" y="260" as="sourcePoint" />
            <mxPoint x="310" y="210" as="targetPoint" />
          </mxGeometry>
        </mxCell>
        <mxCell id="UYLyOY48CC0UU0o-2ukI-40" value="" style="endArrow=classic;html=1;rounded=0;exitX=0.5;exitY=1;exitDx=0;exitDy=0;exitPerimeter=0;flowAnimation=1;fillColor=#1ba1e2;strokeColor=#006EAF;" parent="UYLyOY48CC0UU0o-2ukI-1" source="UYLyOY48CC0UU0o-2ukI-22" target="UYLyOY48CC0UU0o-2ukI-34" edge="1">
          <mxGeometry width="50" height="50" relative="1" as="geometry">
            <mxPoint x="481" y="153" as="sourcePoint" />
            <mxPoint x="385" y="272" as="targetPoint" />
          </mxGeometry>
        </mxCell>
        <mxCell id="UYLyOY48CC0UU0o-2ukI-42" value="" style="endArrow=classic;html=1;rounded=0;exitX=0.5;exitY=1;exitDx=0;exitDy=0;exitPerimeter=0;entryX=0.5;entryY=0;entryDx=0;entryDy=0;flowAnimation=1;fillColor=#1ba1e2;strokeColor=#006EAF;" parent="UYLyOY48CC0UU0o-2ukI-1" source="UYLyOY48CC0UU0o-2ukI-22" target="UYLyOY48CC0UU0o-2ukI-36" edge="1">
          <mxGeometry width="50" height="50" relative="1" as="geometry">
            <mxPoint x="481" y="153" as="sourcePoint" />
            <mxPoint x="480" y="272" as="targetPoint" />
          </mxGeometry>
        </mxCell>
        <mxCell id="UYLyOY48CC0UU0o-2ukI-44" value="" style="endArrow=classic;html=1;rounded=0;exitX=0.5;exitY=1;exitDx=0;exitDy=0;entryX=0.5;entryY=0;entryDx=0;entryDy=0;flowAnimation=1;fillColor=#1ba1e2;strokeColor=#006EAF;" parent="UYLyOY48CC0UU0o-2ukI-1" source="UYLyOY48CC0UU0o-2ukI-37" target="UYLyOY48CC0UU0o-2ukI-35" edge="1">
          <mxGeometry width="50" height="50" relative="1" as="geometry">
            <mxPoint x="481" y="153" as="sourcePoint" />
            <mxPoint x="385" y="272" as="targetPoint" />
          </mxGeometry>
        </mxCell>
        <mxCell id="UYLyOY48CC0UU0o-2ukI-45" value="" style="endArrow=classic;html=1;rounded=0;exitX=0.5;exitY=1;exitDx=0;exitDy=0;entryX=0.5;entryY=0;entryDx=0;entryDy=0;flowAnimation=1;fillColor=#1ba1e2;strokeColor=#006EAF;" parent="UYLyOY48CC0UU0o-2ukI-1" source="UYLyOY48CC0UU0o-2ukI-34" target="UYLyOY48CC0UU0o-2ukI-35" edge="1">
          <mxGeometry width="50" height="50" relative="1" as="geometry">
            <mxPoint x="385" y="312" as="sourcePoint" />
            <mxPoint x="470" y="410" as="targetPoint" />
          </mxGeometry>
        </mxCell>
        <mxCell id="UYLyOY48CC0UU0o-2ukI-46" value="" style="endArrow=classic;html=1;rounded=0;exitX=0.5;exitY=1;exitDx=0;exitDy=0;entryX=0.5;entryY=0;entryDx=0;entryDy=0;flowAnimation=1;fillColor=#1ba1e2;strokeColor=#006EAF;" parent="UYLyOY48CC0UU0o-2ukI-1" source="UYLyOY48CC0UU0o-2ukI-36" target="UYLyOY48CC0UU0o-2ukI-35" edge="1">
          <mxGeometry width="50" height="50" relative="1" as="geometry">
            <mxPoint x="480" y="312" as="sourcePoint" />
            <mxPoint x="470" y="410" as="targetPoint" />
          </mxGeometry>
        </mxCell>
        <mxCell id="UYLyOY48CC0UU0o-2ukI-48" value="" style="verticalLabelPosition=bottom;aspect=fixed;html=1;shape=mxgraph.salesforce.stream2;" parent="UYLyOY48CC0UU0o-2ukI-1" vertex="1">
          <mxGeometry x="500" y="460" width="50" height="50" as="geometry" />
        </mxCell>
        <mxCell id="UYLyOY48CC0UU0o-2ukI-55" value="" style="html=1;verticalLabelPosition=bottom;align=center;labelBackgroundColor=#ffffff;verticalAlign=top;strokeWidth=2;strokeColor=#0080F0;shadow=0;dashed=0;shape=mxgraph.ios7.icons.mail;" parent="UYLyOY48CC0UU0o-2ukI-1" vertex="1">
          <mxGeometry x="300" y="111.75" width="30" height="16.5" as="geometry" />
        </mxCell>
        <mxCell id="UYLyOY48CC0UU0o-2ukI-7" value="&lt;font style=&quot;font-size: 18px;&quot;&gt;Client&lt;/font&gt;" style="shape=umlActor;verticalLabelPosition=bottom;verticalAlign=top;html=1;outlineConnect=0;" parent="1" vertex="1">
          <mxGeometry x="-1590" y="480" width="30" height="60" as="geometry" />
        </mxCell>
        <mxCell id="UYLyOY48CC0UU0o-2ukI-63" value="" style="endArrow=classic;html=1;rounded=0;exitX=0;exitY=0.5;exitDx=0;exitDy=0;entryX=1;entryY=1;entryDx=0;entryDy=0;entryPerimeter=0;flowAnimation=1;fillColor=#d80073;strokeColor=#A50040;" parent="1" source="UYLyOY48CC0UU0o-2ukI-19" target="UYLyOY48CC0UU0o-2ukI-7" edge="1">
          <mxGeometry width="50" height="50" relative="1" as="geometry">
            <mxPoint x="-1150" y="710" as="sourcePoint" />
            <mxPoint x="-1100" y="660" as="targetPoint" />
          </mxGeometry>
        </mxCell>
        <mxCell id="UYLyOY48CC0UU0o-2ukI-64" value="Server notification&lt;br&gt;(Web-socket)" style="edgeLabel;html=1;align=center;verticalAlign=middle;resizable=0;points=[];" parent="UYLyOY48CC0UU0o-2ukI-63" vertex="1" connectable="0">
          <mxGeometry x="-0.2954" y="4" relative="1" as="geometry">
            <mxPoint x="16" y="56" as="offset" />
          </mxGeometry>
        </mxCell>
        <mxCell id="UYLyOY48CC0UU0o-2ukI-76" value="2" style="edgeLabel;html=1;align=center;verticalAlign=middle;resizable=0;points=[];" parent="UYLyOY48CC0UU0o-2ukI-63" vertex="1" connectable="0">
          <mxGeometry x="0.911" y="2" relative="1" as="geometry">
            <mxPoint x="5" as="offset" />
          </mxGeometry>
        </mxCell>
        <mxCell id="UYLyOY48CC0UU0o-2ukI-66" value="" style="endArrow=classic;html=1;rounded=0;entryX=0;entryY=0.5;entryDx=0;entryDy=0;flowAnimation=1;fillColor=#fa6800;strokeColor=#C73500;" parent="1" source="UYLyOY48CC0UU0o-2ukI-7" target="UYLyOY48CC0UU0o-2ukI-15" edge="1">
          <mxGeometry width="50" height="50" relative="1" as="geometry">
            <mxPoint x="-1150" y="710" as="sourcePoint" />
            <mxPoint x="-1100" y="660" as="targetPoint" />
          </mxGeometry>
        </mxCell>
        <mxCell id="UYLyOY48CC0UU0o-2ukI-67" value="Upload file" style="edgeLabel;html=1;align=center;verticalAlign=middle;resizable=0;points=[];" parent="UYLyOY48CC0UU0o-2ukI-66" vertex="1" connectable="0">
          <mxGeometry x="-0.0963" y="-2" relative="1" as="geometry">
            <mxPoint x="90" y="28" as="offset" />
          </mxGeometry>
        </mxCell>
        <mxCell id="UYLyOY48CC0UU0o-2ukI-75" value="1" style="edgeLabel;html=1;align=center;verticalAlign=middle;resizable=0;points=[];" parent="UYLyOY48CC0UU0o-2ukI-66" vertex="1" connectable="0">
          <mxGeometry x="-0.935" relative="1" as="geometry">
            <mxPoint x="9" as="offset" />
          </mxGeometry>
        </mxCell>
        <mxCell id="UYLyOY48CC0UU0o-2ukI-68" value="" style="endArrow=classic;html=1;rounded=0;entryX=0;entryY=0.5;entryDx=0;entryDy=0;flowAnimation=1;fillColor=#008a00;strokeColor=#005700;" parent="1" source="UYLyOY48CC0UU0o-2ukI-7" target="YEFHD9LTUtXPrh24cQGm-1" edge="1">
          <mxGeometry width="50" height="50" relative="1" as="geometry">
            <mxPoint x="-1150" y="710" as="sourcePoint" />
            <mxPoint x="-1100" y="660" as="targetPoint" />
          </mxGeometry>
        </mxCell>
        <mxCell id="UYLyOY48CC0UU0o-2ukI-77" value="3" style="edgeLabel;html=1;align=center;verticalAlign=middle;resizable=0;points=[];" parent="UYLyOY48CC0UU0o-2ukI-68" vertex="1" connectable="0">
          <mxGeometry x="-0.8707" y="-2" relative="1" as="geometry">
            <mxPoint x="-12" y="-1" as="offset" />
          </mxGeometry>
        </mxCell>
        <mxCell id="UYLyOY48CC0UU0o-2ukI-72" value="" style="html=1;verticalLabelPosition=bottom;align=center;labelBackgroundColor=#ffffff;verticalAlign=top;strokeWidth=2;strokeColor=#0080F0;shadow=0;dashed=0;shape=mxgraph.ios7.icons.share;" parent="1" vertex="1">
          <mxGeometry x="-1315.5" y="495.75" width="21" height="28.5" as="geometry" />
        </mxCell>
        <mxCell id="UYLyOY48CC0UU0o-2ukI-79" value="" style="html=1;strokeWidth=1;shadow=0;dashed=0;shape=mxgraph.ios7.misc.notification;fillColor=#FF3B2F;strokeColor=none;buttonText=;strokeColor2=#222222;fontColor=#222222;fontSize=8;verticalLabelPosition=bottom;verticalAlign=top;align=center;sketch=0;" parent="1" vertex="1">
          <mxGeometry x="-1325" y="740" width="40" height="37" as="geometry" />
        </mxCell>
        <mxCell id="UYLyOY48CC0UU0o-2ukI-80" value="" style="swimlane;startSize=0;" parent="1" vertex="1">
          <mxGeometry x="-1660" y="370" width="1080" height="590" as="geometry" />
        </mxCell>
        <mxCell id="UYLyOY48CC0UU0o-2ukI-82" value="&lt;h1&gt;CSV to JSON&lt;/h1&gt;" style="text;html=1;spacing=5;spacingTop=-20;whiteSpace=wrap;overflow=hidden;rounded=0;" parent="UYLyOY48CC0UU0o-2ukI-80" vertex="1">
          <mxGeometry x="10" y="10" width="190" height="120" as="geometry" />
        </mxCell>
        <mxCell id="UYLyOY48CC0UU0o-2ukI-84" value="" style="html=1;verticalLabelPosition=bottom;align=center;labelBackgroundColor=#ffffff;verticalAlign=top;strokeWidth=2;strokeColor=#0080F0;shadow=0;dashed=0;shape=mxgraph.ios7.icons.share;rotation=-180;" parent="UYLyOY48CC0UU0o-2ukI-80" vertex="1">
          <mxGeometry x="344.5" y="241.5" width="21" height="28.5" as="geometry" />
        </mxCell>
        <mxCell id="UYLyOY48CC0UU0o-2ukI-71" value="&lt;span style=&quot;color: rgb(240, 240, 240); font-family: Helvetica; font-size: 11px; font-style: normal; font-variant-ligatures: normal; font-variant-caps: normal; font-weight: 400; letter-spacing: normal; orphans: 2; text-indent: 0px; text-transform: none; widows: 2; word-spacing: 0px; -webkit-text-stroke-width: 0px; background-color: rgb(24, 20, 29); text-decoration-thickness: initial; text-decoration-style: initial; text-decoration-color: initial; float: none; display: inline !important;&quot;&gt;Download&lt;/span&gt;&lt;br style=&quot;border-color: rgb(0, 0, 0); color: rgb(240, 240, 240); font-family: Helvetica; font-size: 11px; font-style: normal; font-variant-ligatures: normal; font-variant-caps: normal; font-weight: 400; letter-spacing: normal; orphans: 2; text-indent: 0px; text-transform: none; widows: 2; word-spacing: 0px; -webkit-text-stroke-width: 0px; text-decoration-thickness: initial; text-decoration-style: initial; text-decoration-color: initial;&quot;&gt;&lt;span style=&quot;color: rgb(240, 240, 240); font-family: Helvetica; font-size: 11px; font-style: normal; font-variant-ligatures: normal; font-variant-caps: normal; font-weight: 400; letter-spacing: normal; orphans: 2; text-indent: 0px; text-transform: none; widows: 2; word-spacing: 0px; -webkit-text-stroke-width: 0px; background-color: rgb(24, 20, 29); text-decoration-thickness: initial; text-decoration-style: initial; text-decoration-color: initial; float: none; display: inline !important;&quot;&gt;of the converted file&lt;/span&gt;&lt;br style=&quot;border-color: rgb(0, 0, 0); color: rgb(240, 240, 240); font-family: Helvetica; font-size: 11px; font-style: normal; font-variant-ligatures: normal; font-variant-caps: normal; font-weight: 400; letter-spacing: normal; orphans: 2; text-indent: 0px; text-transform: none; widows: 2; word-spacing: 0px; -webkit-text-stroke-width: 0px; text-decoration-thickness: initial; text-decoration-style: initial; text-decoration-color: initial;&quot;&gt;&lt;span style=&quot;color: rgb(240, 240, 240); font-family: Helvetica; font-size: 11px; font-style: normal; font-variant-ligatures: normal; font-variant-caps: normal; font-weight: 400; letter-spacing: normal; orphans: 2; text-indent: 0px; text-transform: none; widows: 2; word-spacing: 0px; -webkit-text-stroke-width: 0px; background-color: rgb(24, 20, 29); text-decoration-thickness: initial; text-decoration-style: initial; text-decoration-color: initial; float: none; display: inline !important;&quot;&gt;(JSON)&lt;/span&gt;" style="text;whiteSpace=wrap;html=1;align=center;" parent="UYLyOY48CC0UU0o-2ukI-80" vertex="1">
          <mxGeometry x="310" y="270" width="90" height="50" as="geometry" />
        </mxCell>
        <mxCell id="UYLyOY48CC0UU0o-2ukI-88" value="Designed by Felipe Dasr" style="text;html=1;align=center;verticalAlign=middle;whiteSpace=wrap;rounded=0;" parent="UYLyOY48CC0UU0o-2ukI-80" vertex="1">
          <mxGeometry y="560" width="140" height="30" as="geometry" />
        </mxCell>
        <mxCell id="U5UjxMeSVXvGz8McRONT-3" value="Delete files after 10 minutes" style="text;html=1;align=center;verticalAlign=middle;whiteSpace=wrap;rounded=0;" parent="UYLyOY48CC0UU0o-2ukI-80" vertex="1">
          <mxGeometry x="479" y="350" width="95" height="30" as="geometry" />
        </mxCell>
        <mxCell id="U5UjxMeSVXvGz8McRONT-4" value="" style="html=1;verticalLabelPosition=bottom;align=center;labelBackgroundColor=#ffffff;verticalAlign=top;strokeWidth=2;strokeColor=#0080F0;shadow=0;dashed=0;shape=mxgraph.ios7.icons.alarm_clock;" parent="UYLyOY48CC0UU0o-2ukI-80" vertex="1">
          <mxGeometry x="513" y="390" width="27" height="30" as="geometry" />
        </mxCell>
        <mxCell id="YEFHD9LTUtXPrh24cQGm-1" value="Download&amp;nbsp;&lt;b&gt;.JSON&lt;br&gt;file&lt;/b&gt;" style="rounded=1;whiteSpace=wrap;html=1;" parent="UYLyOY48CC0UU0o-2ukI-80" vertex="1">
          <mxGeometry x="466.5" y="265" width="120" height="60" as="geometry" />
        </mxCell>
        <mxCell id="UYLyOY48CC0UU0o-2ukI-13" value="" style="outlineConnect=0;dashed=0;verticalLabelPosition=bottom;verticalAlign=top;align=center;html=1;shape=mxgraph.aws3.bucket_with_objects;fillColor=#E05243;gradientColor=none;" parent="UYLyOY48CC0UU0o-2ukI-80" vertex="1">
          <mxGeometry x="630" y="265" width="60" height="61.5" as="geometry" />
        </mxCell>
        <mxCell id="UYLyOY48CC0UU0o-2ukI-14" value="Local bucket&lt;br&gt;(temp files)" style="text;html=1;align=center;verticalAlign=middle;whiteSpace=wrap;rounded=0;" parent="UYLyOY48CC0UU0o-2ukI-80" vertex="1">
          <mxGeometry x="620" y="330" width="80" height="30" as="geometry" />
        </mxCell>
        <mxCell id="YEFHD9LTUtXPrh24cQGm-3" value="" style="endArrow=classic;html=1;rounded=0;exitX=1;exitY=0.5;exitDx=0;exitDy=0;entryX=0.06;entryY=0.5;entryDx=0;entryDy=0;entryPerimeter=0;flowAnimation=1;fillColor=#008a00;strokeColor=#005700;" parent="UYLyOY48CC0UU0o-2ukI-80" source="YEFHD9LTUtXPrh24cQGm-1" target="UYLyOY48CC0UU0o-2ukI-13" edge="1">
          <mxGeometry width="50" height="50" relative="1" as="geometry">
            <mxPoint x="670" y="490" as="sourcePoint" />
            <mxPoint x="720" y="440" as="targetPoint" />
          </mxGeometry>
        </mxCell>
        <mxCell id="UYLyOY48CC0UU0o-2ukI-20" value="" style="rounded=1;whiteSpace=wrap;html=1;" parent="UYLyOY48CC0UU0o-2ukI-80" vertex="1">
          <mxGeometry x="633" y="125" width="54" height="30" as="geometry" />
        </mxCell>
        <mxCell id="UYLyOY48CC0UU0o-2ukI-49" value="" style="endArrow=classic;html=1;rounded=0;exitX=0.5;exitY=1;exitDx=0;exitDy=0;entryX=0.5;entryY=0;entryDx=0;entryDy=0;entryPerimeter=0;flowAnimation=1;fillColor=#fa6800;strokeColor=#C73500;" parent="UYLyOY48CC0UU0o-2ukI-80" source="UYLyOY48CC0UU0o-2ukI-20" target="UYLyOY48CC0UU0o-2ukI-13" edge="1">
          <mxGeometry width="50" height="50" relative="1" as="geometry">
            <mxPoint x="805" y="332" as="sourcePoint" />
            <mxPoint x="900" y="420" as="targetPoint" />
          </mxGeometry>
        </mxCell>
        <mxCell id="UYLyOY48CC0UU0o-2ukI-50" value="Store .CSV file&lt;br&gt;(Private)" style="edgeLabel;html=1;align=center;verticalAlign=middle;resizable=0;points=[];" parent="UYLyOY48CC0UU0o-2ukI-49" vertex="1" connectable="0">
          <mxGeometry x="-0.036" y="3" relative="1" as="geometry">
            <mxPoint as="offset" />
          </mxGeometry>
        </mxCell>
        <mxCell id="U5UjxMeSVXvGz8McRONT-2" style="edgeStyle=orthogonalEdgeStyle;rounded=0;orthogonalLoop=1;jettySize=auto;html=1;entryX=0.507;entryY=1.01;entryDx=0;entryDy=0;entryPerimeter=0;flowAnimation=1;fillColor=#d80073;strokeColor=#A50040;" parent="1" source="UYLyOY48CC0UU0o-2ukI-19" edge="1">
          <mxGeometry relative="1" as="geometry">
            <mxPoint x="-1134.6499999999996" y="790.5" as="targetPoint" />
          </mxGeometry>
        </mxCell>
        <mxCell id="UYLyOY48CC0UU0o-2ukI-53" value="" style="endArrow=classic;startArrow=classic;html=1;rounded=0;entryX=0;entryY=0.5;entryDx=0;entryDy=0;exitX=0.94;exitY=0.5;exitDx=0;exitDy=0;exitPerimeter=0;flowAnimation=1;fillColor=#1ba1e2;strokeColor=#006EAF;" parent="1" source="UYLyOY48CC0UU0o-2ukI-13" target="UYLyOY48CC0UU0o-2ukI-35" edge="1">
          <mxGeometry width="50" height="50" relative="1" as="geometry">
            <mxPoint x="-950" y="810" as="sourcePoint" />
            <mxPoint x="-900" y="760" as="targetPoint" />
          </mxGeometry>
        </mxCell>
        <mxCell id="UYLyOY48CC0UU0o-2ukI-54" value="Read and write" style="edgeLabel;html=1;align=center;verticalAlign=middle;resizable=0;points=[];" parent="UYLyOY48CC0UU0o-2ukI-53" vertex="1" connectable="0">
          <mxGeometry x="-0.1413" y="-2" relative="1" as="geometry">
            <mxPoint x="34" y="31" as="offset" />
          </mxGeometry>
        </mxCell>
        <mxCell id="UYLyOY48CC0UU0o-2ukI-21" style="edgeStyle=orthogonalEdgeStyle;rounded=0;orthogonalLoop=1;jettySize=auto;html=1;flowAnimation=1;fillColor=#fa6800;strokeColor=#C73500;" parent="1" source="UYLyOY48CC0UU0o-2ukI-15" target="UYLyOY48CC0UU0o-2ukI-20" edge="1">
          <mxGeometry relative="1" as="geometry" />
        </mxCell>
        <mxCell id="UYLyOY48CC0UU0o-2ukI-58" value="" style="edgeStyle=orthogonalEdgeStyle;rounded=0;orthogonalLoop=1;jettySize=auto;html=1;entryX=-0.038;entryY=0.522;entryDx=0;entryDy=0;entryPerimeter=0;exitX=1;exitY=0.5;exitDx=0;exitDy=0;flowAnimation=1;fillColor=#fa6800;strokeColor=#C73500;" parent="1" source="UYLyOY48CC0UU0o-2ukI-20" target="UYLyOY48CC0UU0o-2ukI-55" edge="1">
          <mxGeometry relative="1" as="geometry">
            <mxPoint x="-800" y="860" as="sourcePoint" />
            <mxPoint x="-606" y="861" as="targetPoint" />
          </mxGeometry>
        </mxCell>
      </root>
    </mxGraphModel>
  </diagram>
</mxfile>
